<mxfile host="Electron" agent="Mozilla/5.0 (Windows NT 10.0; Win64; x64) AppleWebKit/537.36 (KHTML, like Gecko) draw.io/26.2.15 Chrome/134.0.6998.205 Electron/35.2.1 Safari/537.36" version="26.2.15">
  <diagram name="Seite-1" id="hk0JEmsNdVFttVQd2n24">
    <mxGraphModel dx="2859" dy="828" grid="1" gridSize="10" guides="1" tooltips="1" connect="1" arrows="1" fold="1" page="1" pageScale="1" pageWidth="827" pageHeight="1169" math="0" shadow="0">
      <root>
        <mxCell id="0" />
        <mxCell id="1" parent="0" />
        <mxCell id="TYEe0qcxnPPXXh8wLUPJ-1" value="&lt;font style=&quot;font-size: 14px;&quot;&gt;&lt;b&gt;BACKEND&lt;/b&gt;&lt;/font&gt;" style="rounded=1;whiteSpace=wrap;html=1;fillColor=#f8cecc;strokeColor=#b85450;" parent="1" vertex="1">
          <mxGeometry x="-420" y="760" width="600" height="80" as="geometry" />
        </mxCell>
        <mxCell id="TYEe0qcxnPPXXh8wLUPJ-2" value="&lt;font style=&quot;font-size: 14px;&quot;&gt;&lt;b style=&quot;&quot;&gt;FRONTEND&lt;/b&gt;&lt;/font&gt;" style="rounded=1;whiteSpace=wrap;html=1;fillColor=#fff2cc;strokeColor=#d6b656;" parent="1" vertex="1">
          <mxGeometry x="-420" y="160" width="600" height="80" as="geometry" />
        </mxCell>
        <mxCell id="TYEe0qcxnPPXXh8wLUPJ-41" style="edgeStyle=orthogonalEdgeStyle;rounded=0;orthogonalLoop=1;jettySize=auto;html=1;exitX=0.5;exitY=1;exitDx=0;exitDy=0;entryX=0.625;entryY=0;entryDx=0;entryDy=0;" parent="1" source="TYEe0qcxnPPXXh8wLUPJ-3" target="TYEe0qcxnPPXXh8wLUPJ-8" edge="1">
          <mxGeometry relative="1" as="geometry">
            <Array as="points">
              <mxPoint x="260" y="620" />
              <mxPoint x="-100" y="620" />
            </Array>
          </mxGeometry>
        </mxCell>
        <mxCell id="TYEe0qcxnPPXXh8wLUPJ-75" value="wird abgerufen" style="edgeLabel;html=1;align=center;verticalAlign=middle;resizable=0;points=[];" parent="TYEe0qcxnPPXXh8wLUPJ-41" vertex="1" connectable="0">
          <mxGeometry x="0.5818" y="-3" relative="1" as="geometry">
            <mxPoint x="8" y="3" as="offset" />
          </mxGeometry>
        </mxCell>
        <mxCell id="TYEe0qcxnPPXXh8wLUPJ-74" style="edgeStyle=orthogonalEdgeStyle;rounded=0;orthogonalLoop=1;jettySize=auto;html=1;exitX=0.75;exitY=1;exitDx=0;exitDy=0;entryX=1;entryY=0.5;entryDx=0;entryDy=0;" parent="1" source="TYEe0qcxnPPXXh8wLUPJ-3" target="TYEe0qcxnPPXXh8wLUPJ-65" edge="1">
          <mxGeometry relative="1" as="geometry" />
        </mxCell>
        <mxCell id="TYEe0qcxnPPXXh8wLUPJ-76" value="wird abgerufen" style="edgeLabel;html=1;align=center;verticalAlign=middle;resizable=0;points=[];" parent="TYEe0qcxnPPXXh8wLUPJ-74" vertex="1" connectable="0">
          <mxGeometry x="0.4257" y="3" relative="1" as="geometry">
            <mxPoint x="5" y="-3" as="offset" />
          </mxGeometry>
        </mxCell>
        <mxCell id="TYEe0qcxnPPXXh8wLUPJ-82" style="edgeStyle=orthogonalEdgeStyle;rounded=0;orthogonalLoop=1;jettySize=auto;html=1;exitX=0.5;exitY=1;exitDx=0;exitDy=0;entryX=1;entryY=0.75;entryDx=0;entryDy=0;" parent="1" source="TYEe0qcxnPPXXh8wLUPJ-3" target="TYEe0qcxnPPXXh8wLUPJ-21" edge="1">
          <mxGeometry relative="1" as="geometry">
            <Array as="points">
              <mxPoint x="260" y="698" />
            </Array>
          </mxGeometry>
        </mxCell>
        <mxCell id="TYEe0qcxnPPXXh8wLUPJ-83" value="wird abgerufen" style="edgeLabel;html=1;align=center;verticalAlign=middle;resizable=0;points=[];" parent="TYEe0qcxnPPXXh8wLUPJ-82" vertex="1" connectable="0">
          <mxGeometry x="0.4925" relative="1" as="geometry">
            <mxPoint as="offset" />
          </mxGeometry>
        </mxCell>
        <mxCell id="TYEe0qcxnPPXXh8wLUPJ-3" value="Datenbank" style="rounded=0;whiteSpace=wrap;html=1;fillColor=#dae8fc;strokeColor=#6c8ebf;" parent="1" vertex="1">
          <mxGeometry x="180" y="440" width="160" height="120" as="geometry" />
        </mxCell>
        <mxCell id="TYEe0qcxnPPXXh8wLUPJ-84" style="edgeStyle=orthogonalEdgeStyle;rounded=0;orthogonalLoop=1;jettySize=auto;html=1;exitX=0;exitY=0.75;exitDx=0;exitDy=0;entryX=1;entryY=0.75;entryDx=0;entryDy=0;" parent="1" source="TYEe0qcxnPPXXh8wLUPJ-4" target="TYEe0qcxnPPXXh8wLUPJ-3" edge="1">
          <mxGeometry relative="1" as="geometry">
            <Array as="points">
              <mxPoint x="-440" y="698" />
              <mxPoint x="-440" y="860" />
              <mxPoint x="360" y="860" />
              <mxPoint x="360" y="530" />
            </Array>
          </mxGeometry>
        </mxCell>
        <mxCell id="TYEe0qcxnPPXXh8wLUPJ-85" value="speichert Stack&lt;div&gt;mit Methoden (Ablauf)&lt;/div&gt;" style="edgeLabel;html=1;align=center;verticalAlign=middle;resizable=0;points=[];" parent="TYEe0qcxnPPXXh8wLUPJ-84" vertex="1" connectable="0">
          <mxGeometry x="0.827" y="1" relative="1" as="geometry">
            <mxPoint as="offset" />
          </mxGeometry>
        </mxCell>
        <mxCell id="TYEe0qcxnPPXXh8wLUPJ-4" value="Kampf-Klasse" style="shape=hexagon;perimeter=hexagonPerimeter2;whiteSpace=wrap;html=1;fixedSize=1;fillColor=#f8cecc;strokeColor=#b85450;" parent="1" vertex="1">
          <mxGeometry x="-400" y="640" width="160" height="80" as="geometry" />
        </mxCell>
        <mxCell id="TYEe0qcxnPPXXh8wLUPJ-23" style="edgeStyle=orthogonalEdgeStyle;rounded=0;orthogonalLoop=1;jettySize=auto;html=1;exitX=1;exitY=0.25;exitDx=0;exitDy=0;entryX=0.5;entryY=0;entryDx=0;entryDy=0;" parent="1" source="TYEe0qcxnPPXXh8wLUPJ-6" target="TYEe0qcxnPPXXh8wLUPJ-4" edge="1">
          <mxGeometry relative="1" as="geometry" />
        </mxCell>
        <mxCell id="TYEe0qcxnPPXXh8wLUPJ-24" value="Erzeugt Kopie" style="edgeLabel;html=1;align=center;verticalAlign=middle;resizable=0;points=[];" parent="TYEe0qcxnPPXXh8wLUPJ-23" vertex="1" connectable="0">
          <mxGeometry x="-0.3905" y="3" relative="1" as="geometry">
            <mxPoint x="13" y="3" as="offset" />
          </mxGeometry>
        </mxCell>
        <mxCell id="TYEe0qcxnPPXXh8wLUPJ-50" style="edgeStyle=orthogonalEdgeStyle;rounded=0;orthogonalLoop=1;jettySize=auto;html=1;exitX=0.5;exitY=0;exitDx=0;exitDy=0;entryX=0;entryY=0.5;entryDx=0;entryDy=0;" parent="1" source="TYEe0qcxnPPXXh8wLUPJ-6" target="TYEe0qcxnPPXXh8wLUPJ-9" edge="1">
          <mxGeometry relative="1" as="geometry" />
        </mxCell>
        <mxCell id="TYEe0qcxnPPXXh8wLUPJ-51" value="Ruft ab" style="edgeLabel;html=1;align=center;verticalAlign=middle;resizable=0;points=[];" parent="TYEe0qcxnPPXXh8wLUPJ-50" vertex="1" connectable="0">
          <mxGeometry x="-0.1286" relative="1" as="geometry">
            <mxPoint as="offset" />
          </mxGeometry>
        </mxCell>
        <mxCell id="TYEe0qcxnPPXXh8wLUPJ-6" value="Lokaler Speicher" style="rounded=0;whiteSpace=wrap;html=1;fillColor=#dae8fc;strokeColor=#6c8ebf;" parent="1" vertex="1">
          <mxGeometry x="-580" y="600" width="160" height="80" as="geometry" />
        </mxCell>
        <mxCell id="TYEe0qcxnPPXXh8wLUPJ-10" style="edgeStyle=orthogonalEdgeStyle;rounded=0;orthogonalLoop=1;jettySize=auto;html=1;exitX=0.5;exitY=0;exitDx=0;exitDy=0;entryX=0.5;entryY=1;entryDx=0;entryDy=0;" parent="1" source="TYEe0qcxnPPXXh8wLUPJ-8" target="TYEe0qcxnPPXXh8wLUPJ-9" edge="1">
          <mxGeometry relative="1" as="geometry" />
        </mxCell>
        <mxCell id="TYEe0qcxnPPXXh8wLUPJ-18" value="Erzeugt" style="edgeLabel;html=1;align=center;verticalAlign=middle;resizable=0;points=[];" parent="TYEe0qcxnPPXXh8wLUPJ-10" vertex="1" connectable="0">
          <mxGeometry x="0.1071" y="2" relative="1" as="geometry">
            <mxPoint x="2" y="4" as="offset" />
          </mxGeometry>
        </mxCell>
        <mxCell id="TYEe0qcxnPPXXh8wLUPJ-8" value="Tier-Klasse" style="shape=hexagon;perimeter=hexagonPerimeter2;whiteSpace=wrap;html=1;fixedSize=1;fillColor=#f8cecc;strokeColor=#b85450;" parent="1" vertex="1">
          <mxGeometry x="-200" y="640" width="160" height="80" as="geometry" />
        </mxCell>
        <mxCell id="TYEe0qcxnPPXXh8wLUPJ-42" style="edgeStyle=orthogonalEdgeStyle;rounded=0;orthogonalLoop=1;jettySize=auto;html=1;exitX=0;exitY=1;exitDx=0;exitDy=0;entryX=0.625;entryY=0;entryDx=0;entryDy=0;entryPerimeter=0;" parent="1" source="TYEe0qcxnPPXXh8wLUPJ-9" target="TYEe0qcxnPPXXh8wLUPJ-6" edge="1">
          <mxGeometry relative="1" as="geometry" />
        </mxCell>
        <mxCell id="TYEe0qcxnPPXXh8wLUPJ-52" value="Speichert" style="edgeLabel;html=1;align=center;verticalAlign=middle;resizable=0;points=[];" parent="TYEe0qcxnPPXXh8wLUPJ-42" vertex="1" connectable="0">
          <mxGeometry x="0.2262" y="1" relative="1" as="geometry">
            <mxPoint x="7" as="offset" />
          </mxGeometry>
        </mxCell>
        <mxCell id="TYEe0qcxnPPXXh8wLUPJ-46" style="edgeStyle=orthogonalEdgeStyle;rounded=0;orthogonalLoop=1;jettySize=auto;html=1;exitX=1;exitY=1;exitDx=0;exitDy=0;entryX=0.188;entryY=0;entryDx=0;entryDy=0;entryPerimeter=0;" parent="1" source="TYEe0qcxnPPXXh8wLUPJ-9" target="TYEe0qcxnPPXXh8wLUPJ-21" edge="1">
          <mxGeometry relative="1" as="geometry" />
        </mxCell>
        <mxCell id="TYEe0qcxnPPXXh8wLUPJ-48" value="Ãœbergibt" style="edgeLabel;html=1;align=center;verticalAlign=middle;resizable=0;points=[];" parent="TYEe0qcxnPPXXh8wLUPJ-46" vertex="1" connectable="0">
          <mxGeometry x="-0.4978" y="1" relative="1" as="geometry">
            <mxPoint as="offset" />
          </mxGeometry>
        </mxCell>
        <mxCell id="TYEe0qcxnPPXXh8wLUPJ-9" value="Tier-Objekt" style="ellipse;whiteSpace=wrap;html=1;fillColor=#f8cecc;strokeColor=#b85450;" parent="1" vertex="1">
          <mxGeometry x="-180" y="480" width="120" height="80" as="geometry" />
        </mxCell>
        <mxCell id="TYEe0qcxnPPXXh8wLUPJ-47" style="edgeStyle=orthogonalEdgeStyle;rounded=0;orthogonalLoop=1;jettySize=auto;html=1;exitX=0.265;exitY=-0.014;exitDx=0;exitDy=0;entryX=1;entryY=0.5;entryDx=0;entryDy=0;exitPerimeter=0;" parent="1" source="TYEe0qcxnPPXXh8wLUPJ-21" target="TYEe0qcxnPPXXh8wLUPJ-9" edge="1">
          <mxGeometry relative="1" as="geometry">
            <Array as="points">
              <mxPoint x="42" y="640" />
              <mxPoint x="40" y="640" />
              <mxPoint x="40" y="520" />
            </Array>
          </mxGeometry>
        </mxCell>
        <mxCell id="TYEe0qcxnPPXXh8wLUPJ-49" value="Ãœberschreibt" style="edgeLabel;html=1;align=center;verticalAlign=middle;resizable=0;points=[];" parent="TYEe0qcxnPPXXh8wLUPJ-47" vertex="1" connectable="0">
          <mxGeometry x="0.5469" y="3" relative="1" as="geometry">
            <mxPoint y="-3" as="offset" />
          </mxGeometry>
        </mxCell>
        <mxCell id="TYEe0qcxnPPXXh8wLUPJ-63" style="edgeStyle=orthogonalEdgeStyle;rounded=0;orthogonalLoop=1;jettySize=auto;html=1;exitX=1;exitY=0.5;exitDx=0;exitDy=0;" parent="1" source="TYEe0qcxnPPXXh8wLUPJ-21" edge="1">
          <mxGeometry relative="1" as="geometry">
            <mxPoint x="260" y="680" as="targetPoint" />
          </mxGeometry>
        </mxCell>
        <mxCell id="TYEe0qcxnPPXXh8wLUPJ-64" value="manipuliert" style="edgeLabel;html=1;align=center;verticalAlign=middle;resizable=0;points=[];" parent="TYEe0qcxnPPXXh8wLUPJ-63" vertex="1" connectable="0">
          <mxGeometry x="0.483" y="-1" relative="1" as="geometry">
            <mxPoint x="-24" y="-1" as="offset" />
          </mxGeometry>
        </mxCell>
        <mxCell id="TYEe0qcxnPPXXh8wLUPJ-21" value="Shop-Klasse" style="shape=hexagon;perimeter=hexagonPerimeter2;whiteSpace=wrap;html=1;fixedSize=1;fillColor=#f8cecc;strokeColor=#b85450;" parent="1" vertex="1">
          <mxGeometry y="640" width="160" height="80" as="geometry" />
        </mxCell>
        <mxCell id="TYEe0qcxnPPXXh8wLUPJ-59" style="edgeStyle=orthogonalEdgeStyle;rounded=0;orthogonalLoop=1;jettySize=auto;html=1;exitX=0;exitY=0.5;exitDx=0;exitDy=0;entryX=1;entryY=0.5;entryDx=0;entryDy=0;flowAnimation=1;" parent="1" source="TYEe0qcxnPPXXh8wLUPJ-27" target="TYEe0qcxnPPXXh8wLUPJ-4" edge="1">
          <mxGeometry relative="1" as="geometry">
            <Array as="points">
              <mxPoint x="-240" y="390" />
            </Array>
          </mxGeometry>
        </mxCell>
        <mxCell id="TYEe0qcxnPPXXh8wLUPJ-60" value="Ruft &quot;Kampf&quot;&amp;nbsp;&lt;div&gt;Methode auf&lt;/div&gt;" style="edgeLabel;html=1;align=center;verticalAlign=middle;resizable=0;points=[];fontSize=7;" parent="TYEe0qcxnPPXXh8wLUPJ-59" vertex="1" connectable="0">
          <mxGeometry x="-0.4982" y="-2" relative="1" as="geometry">
            <mxPoint as="offset" />
          </mxGeometry>
        </mxCell>
        <mxCell id="Qf_iPtZ823K7PLNo9VAm-5" style="edgeStyle=orthogonalEdgeStyle;rounded=0;orthogonalLoop=1;jettySize=auto;html=1;entryX=0;entryY=0.5;entryDx=0;entryDy=0;" edge="1" parent="1" source="TYEe0qcxnPPXXh8wLUPJ-27" target="TYEe0qcxnPPXXh8wLUPJ-28">
          <mxGeometry relative="1" as="geometry">
            <mxPoint x="-20" y="420" as="targetPoint" />
          </mxGeometry>
        </mxCell>
        <mxCell id="Qf_iPtZ823K7PLNo9VAm-50" style="edgeStyle=orthogonalEdgeStyle;rounded=0;orthogonalLoop=1;jettySize=auto;html=1;entryX=0.625;entryY=0;entryDx=0;entryDy=0;" edge="1" parent="1" source="TYEe0qcxnPPXXh8wLUPJ-27" target="TYEe0qcxnPPXXh8wLUPJ-4">
          <mxGeometry relative="1" as="geometry" />
        </mxCell>
        <mxCell id="Qf_iPtZ823K7PLNo9VAm-51" value="Pollinganfrage nach&lt;div&gt;jeder &quot;Runde&quot;&lt;span style=&quot;background-color: light-dark(#ffffff, var(--ge-dark-color, #121212)); color: light-dark(rgb(0, 0, 0), rgb(255, 255, 255));&quot;&gt;&amp;nbsp;fÃ¼r Leben&lt;/span&gt;&lt;/div&gt;" style="edgeLabel;html=1;align=center;verticalAlign=middle;resizable=0;points=[];fontSize=9;" vertex="1" connectable="0" parent="Qf_iPtZ823K7PLNo9VAm-50">
          <mxGeometry x="0.1658" y="2" relative="1" as="geometry">
            <mxPoint as="offset" />
          </mxGeometry>
        </mxCell>
        <mxCell id="Qf_iPtZ823K7PLNo9VAm-71" style="edgeStyle=orthogonalEdgeStyle;rounded=0;orthogonalLoop=1;jettySize=auto;html=1;entryX=0;entryY=0.5;entryDx=0;entryDy=0;" edge="1" parent="1" source="TYEe0qcxnPPXXh8wLUPJ-27" target="TYEe0qcxnPPXXh8wLUPJ-8">
          <mxGeometry relative="1" as="geometry">
            <Array as="points">
              <mxPoint x="-200" y="390" />
            </Array>
          </mxGeometry>
        </mxCell>
        <mxCell id="Qf_iPtZ823K7PLNo9VAm-72" value="Polling&lt;div&gt;FÃ¤higkeiten&lt;/div&gt;" style="edgeLabel;html=1;align=center;verticalAlign=middle;resizable=0;points=[];fontSize=9;" vertex="1" connectable="0" parent="Qf_iPtZ823K7PLNo9VAm-71">
          <mxGeometry x="-0.4444" y="1" relative="1" as="geometry">
            <mxPoint as="offset" />
          </mxGeometry>
        </mxCell>
        <mxCell id="TYEe0qcxnPPXXh8wLUPJ-27" value="Kampf" style="ellipse;whiteSpace=wrap;html=1;fillColor=#fff2cc;strokeColor=#d6b656;" parent="1" vertex="1">
          <mxGeometry x="-180" y="350" width="120" height="80" as="geometry" />
        </mxCell>
        <mxCell id="Qf_iPtZ823K7PLNo9VAm-3" style="edgeStyle=orthogonalEdgeStyle;rounded=0;orthogonalLoop=1;jettySize=auto;html=1;entryX=1;entryY=0.5;entryDx=0;entryDy=0;" edge="1" parent="1" source="TYEe0qcxnPPXXh8wLUPJ-28" target="TYEe0qcxnPPXXh8wLUPJ-27">
          <mxGeometry relative="1" as="geometry" />
        </mxCell>
        <mxCell id="Qf_iPtZ823K7PLNo9VAm-4" value="LÃ¤dt" style="edgeLabel;html=1;align=center;verticalAlign=middle;resizable=0;points=[];fontSize=9;" vertex="1" connectable="0" parent="Qf_iPtZ823K7PLNo9VAm-3">
          <mxGeometry x="0.0534" y="-2" relative="1" as="geometry">
            <mxPoint x="1" y="2" as="offset" />
          </mxGeometry>
        </mxCell>
        <mxCell id="Qf_iPtZ823K7PLNo9VAm-18" style="edgeStyle=orthogonalEdgeStyle;rounded=0;orthogonalLoop=1;jettySize=auto;html=1;exitX=1;exitY=0;exitDx=0;exitDy=0;entryX=1;entryY=0.25;entryDx=0;entryDy=0;startArrow=classic;startFill=1;" edge="1" parent="1" source="TYEe0qcxnPPXXh8wLUPJ-28" target="TYEe0qcxnPPXXh8wLUPJ-21">
          <mxGeometry relative="1" as="geometry">
            <Array as="points">
              <mxPoint x="151" y="392" />
            </Array>
          </mxGeometry>
        </mxCell>
        <mxCell id="Qf_iPtZ823K7PLNo9VAm-19" value="Polling&lt;div&gt;Shop-Tiere&lt;/div&gt;" style="edgeLabel;html=1;align=center;verticalAlign=middle;resizable=0;points=[];" vertex="1" connectable="0" parent="Qf_iPtZ823K7PLNo9VAm-18">
          <mxGeometry x="-0.3536" y="2" relative="1" as="geometry">
            <mxPoint as="offset" />
          </mxGeometry>
        </mxCell>
        <mxCell id="TYEe0qcxnPPXXh8wLUPJ-28" value="Shop" style="ellipse;whiteSpace=wrap;html=1;fillColor=#fff2cc;strokeColor=#d6b656;" parent="1" vertex="1">
          <mxGeometry x="-20" y="350" width="120" height="80" as="geometry" />
        </mxCell>
        <mxCell id="TYEe0qcxnPPXXh8wLUPJ-39" style="edgeStyle=orthogonalEdgeStyle;rounded=0;orthogonalLoop=1;jettySize=auto;html=1;exitX=0.5;exitY=1;exitDx=0;exitDy=0;entryX=0.5;entryY=0;entryDx=0;entryDy=0;" parent="1" source="TYEe0qcxnPPXXh8wLUPJ-38" target="TYEe0qcxnPPXXh8wLUPJ-3" edge="1">
          <mxGeometry relative="1" as="geometry" />
        </mxCell>
        <mxCell id="TYEe0qcxnPPXXh8wLUPJ-40" value="Vordefiniert" style="edgeLabel;html=1;align=center;verticalAlign=middle;resizable=0;points=[];" parent="TYEe0qcxnPPXXh8wLUPJ-39" vertex="1" connectable="0">
          <mxGeometry x="-0.1857" y="-1" relative="1" as="geometry">
            <mxPoint x="1" as="offset" />
          </mxGeometry>
        </mxCell>
        <mxCell id="TYEe0qcxnPPXXh8wLUPJ-38" value="Tier-Attribute&lt;br&gt;&lt;div&gt;FÃ¤higkeiten&lt;/div&gt;" style="ellipse;whiteSpace=wrap;html=1;fillColor=#dae8fc;strokeColor=#6c8ebf;" parent="1" vertex="1">
          <mxGeometry x="200" y="320" width="120" height="80" as="geometry" />
        </mxCell>
        <mxCell id="TYEe0qcxnPPXXh8wLUPJ-69" style="edgeStyle=orthogonalEdgeStyle;rounded=0;orthogonalLoop=1;jettySize=auto;html=1;exitX=0;exitY=0.5;exitDx=0;exitDy=0;entryX=0.5;entryY=1;entryDx=0;entryDy=0;" parent="1" source="TYEe0qcxnPPXXh8wLUPJ-65" target="TYEe0qcxnPPXXh8wLUPJ-8" edge="1">
          <mxGeometry relative="1" as="geometry" />
        </mxCell>
        <mxCell id="TYEe0qcxnPPXXh8wLUPJ-65" value="FÃ¤higkeiten-Klasse" style="shape=hexagon;perimeter=hexagonPerimeter2;whiteSpace=wrap;html=1;fixedSize=1;fillColor=#f8cecc;strokeColor=#b85450;" parent="1" vertex="1">
          <mxGeometry x="-100" y="730" width="160" height="20" as="geometry" />
        </mxCell>
        <mxCell id="Qf_iPtZ823K7PLNo9VAm-9" style="edgeStyle=orthogonalEdgeStyle;rounded=0;orthogonalLoop=1;jettySize=auto;html=1;entryX=0.5;entryY=0;entryDx=0;entryDy=0;flowAnimation=0;shadow=0;startArrow=classic;startFill=1;" edge="1" parent="1" source="jvgYOc2JI1lOi1m-a4XJ-1" target="TYEe0qcxnPPXXh8wLUPJ-28">
          <mxGeometry relative="1" as="geometry" />
        </mxCell>
        <mxCell id="Qf_iPtZ823K7PLNo9VAm-12" value="LÃ¤dt" style="edgeLabel;html=1;align=center;verticalAlign=middle;resizable=0;points=[];" vertex="1" connectable="0" parent="Qf_iPtZ823K7PLNo9VAm-9">
          <mxGeometry x="-0.1135" y="-1" relative="1" as="geometry">
            <mxPoint as="offset" />
          </mxGeometry>
        </mxCell>
        <mxCell id="jvgYOc2JI1lOi1m-a4XJ-1" value="HauptmenÃ¼" style="ellipse;whiteSpace=wrap;html=1;fillColor=#fff2cc;strokeColor=#d6b656;" parent="1" vertex="1">
          <mxGeometry x="-480" y="290" width="120" height="80" as="geometry" />
        </mxCell>
        <mxCell id="Qf_iPtZ823K7PLNo9VAm-26" style="edgeStyle=orthogonalEdgeStyle;rounded=0;orthogonalLoop=1;jettySize=auto;html=1;entryX=0;entryY=0.5;entryDx=0;entryDy=0;" edge="1" parent="1" source="Qf_iPtZ823K7PLNo9VAm-21" target="Qf_iPtZ823K7PLNo9VAm-24">
          <mxGeometry relative="1" as="geometry" />
        </mxCell>
        <mxCell id="Qf_iPtZ823K7PLNo9VAm-21" value="HauptmenÃ¼" style="ellipse;whiteSpace=wrap;html=1;fillColor=#fff2cc;strokeColor=#d6b656;" vertex="1" parent="1">
          <mxGeometry x="850" y="410" width="120" height="80" as="geometry" />
        </mxCell>
        <mxCell id="Qf_iPtZ823K7PLNo9VAm-52" style="edgeStyle=orthogonalEdgeStyle;rounded=0;orthogonalLoop=1;jettySize=auto;html=1;entryX=1;entryY=0.5;entryDx=0;entryDy=0;" edge="1" parent="1" source="Qf_iPtZ823K7PLNo9VAm-22" target="Qf_iPtZ823K7PLNo9VAm-33">
          <mxGeometry relative="1" as="geometry">
            <Array as="points">
              <mxPoint x="910" y="780" />
            </Array>
          </mxGeometry>
        </mxCell>
        <mxCell id="Qf_iPtZ823K7PLNo9VAm-53" value="Polling&lt;div&gt;Shoptiere&lt;/div&gt;" style="edgeLabel;html=1;align=center;verticalAlign=middle;resizable=0;points=[];" vertex="1" connectable="0" parent="Qf_iPtZ823K7PLNo9VAm-52">
          <mxGeometry x="-0.591" y="1" relative="1" as="geometry">
            <mxPoint as="offset" />
          </mxGeometry>
        </mxCell>
        <mxCell id="Qf_iPtZ823K7PLNo9VAm-55" style="edgeStyle=orthogonalEdgeStyle;rounded=0;orthogonalLoop=1;jettySize=auto;html=1;entryX=1;entryY=0.5;entryDx=0;entryDy=0;" edge="1" parent="1" source="Qf_iPtZ823K7PLNo9VAm-22" target="Qf_iPtZ823K7PLNo9VAm-77">
          <mxGeometry relative="1" as="geometry">
            <mxPoint x="798.7500000000005" y="540" as="targetPoint" />
            <Array as="points">
              <mxPoint x="910" y="545" />
            </Array>
          </mxGeometry>
        </mxCell>
        <mxCell id="Qf_iPtZ823K7PLNo9VAm-22" value="Shop" style="ellipse;whiteSpace=wrap;html=1;fillColor=#fff2cc;strokeColor=#d6b656;" vertex="1" parent="1">
          <mxGeometry x="850" y="590" width="120" height="80" as="geometry" />
        </mxCell>
        <mxCell id="Qf_iPtZ823K7PLNo9VAm-42" style="edgeStyle=orthogonalEdgeStyle;rounded=0;orthogonalLoop=1;jettySize=auto;html=1;entryX=0.625;entryY=0;entryDx=0;entryDy=0;flowAnimation=1;" edge="1" parent="1" source="Qf_iPtZ823K7PLNo9VAm-23" target="Qf_iPtZ823K7PLNo9VAm-41">
          <mxGeometry relative="1" as="geometry">
            <Array as="points">
              <mxPoint x="750" y="920" />
            </Array>
          </mxGeometry>
        </mxCell>
        <mxCell id="Qf_iPtZ823K7PLNo9VAm-43" value="Ruft &quot;Kampf&quot;&lt;div&gt;Methode auf&lt;/div&gt;" style="edgeLabel;html=1;align=center;verticalAlign=middle;resizable=0;points=[];" vertex="1" connectable="0" parent="Qf_iPtZ823K7PLNo9VAm-42">
          <mxGeometry x="-0.357" y="2" relative="1" as="geometry">
            <mxPoint as="offset" />
          </mxGeometry>
        </mxCell>
        <mxCell id="Qf_iPtZ823K7PLNo9VAm-45" style="edgeStyle=orthogonalEdgeStyle;rounded=0;orthogonalLoop=1;jettySize=auto;html=1;entryX=1;entryY=0.5;entryDx=0;entryDy=0;" edge="1" parent="1" source="Qf_iPtZ823K7PLNo9VAm-23" target="Qf_iPtZ823K7PLNo9VAm-41">
          <mxGeometry relative="1" as="geometry">
            <Array as="points">
              <mxPoint x="870" y="1020" />
            </Array>
          </mxGeometry>
        </mxCell>
        <mxCell id="Qf_iPtZ823K7PLNo9VAm-46" value="Polling nach jeder&lt;div&gt;&quot;Runde&quot; fÃ¼r Leben&lt;/div&gt;" style="edgeLabel;html=1;align=center;verticalAlign=middle;resizable=0;points=[];" vertex="1" connectable="0" parent="Qf_iPtZ823K7PLNo9VAm-45">
          <mxGeometry x="-0.5025" y="2" relative="1" as="geometry">
            <mxPoint as="offset" />
          </mxGeometry>
        </mxCell>
        <mxCell id="Qf_iPtZ823K7PLNo9VAm-48" style="edgeStyle=orthogonalEdgeStyle;rounded=0;orthogonalLoop=1;jettySize=auto;html=1;entryX=0;entryY=0.5;entryDx=0;entryDy=0;" edge="1" parent="1" source="Qf_iPtZ823K7PLNo9VAm-23" target="Qf_iPtZ823K7PLNo9VAm-47">
          <mxGeometry relative="1" as="geometry">
            <Array as="points">
              <mxPoint x="960" y="1020" />
            </Array>
          </mxGeometry>
        </mxCell>
        <mxCell id="Qf_iPtZ823K7PLNo9VAm-49" value="Polling&lt;div&gt;FÃ¤higkeiten&lt;/div&gt;" style="edgeLabel;html=1;align=center;verticalAlign=middle;resizable=0;points=[];" vertex="1" connectable="0" parent="Qf_iPtZ823K7PLNo9VAm-48">
          <mxGeometry x="0.3269" relative="1" as="geometry">
            <mxPoint as="offset" />
          </mxGeometry>
        </mxCell>
        <mxCell id="Qf_iPtZ823K7PLNo9VAm-23" value="Kampf" style="ellipse;whiteSpace=wrap;html=1;fillColor=#fff2cc;strokeColor=#d6b656;" vertex="1" parent="1">
          <mxGeometry x="850" y="870" width="120" height="80" as="geometry" />
        </mxCell>
        <mxCell id="Qf_iPtZ823K7PLNo9VAm-24" value="Start" style="rounded=0;whiteSpace=wrap;html=1;fillColor=#dae8fc;strokeColor=#6c8ebf;" vertex="1" parent="1">
          <mxGeometry x="1010" y="470" width="60" height="30" as="geometry" />
        </mxCell>
        <mxCell id="Qf_iPtZ823K7PLNo9VAm-27" style="edgeStyle=orthogonalEdgeStyle;rounded=0;orthogonalLoop=1;jettySize=auto;html=1;entryX=0.948;entryY=0.271;entryDx=0;entryDy=0;entryPerimeter=0;" edge="1" parent="1" source="Qf_iPtZ823K7PLNo9VAm-24" target="Qf_iPtZ823K7PLNo9VAm-22">
          <mxGeometry relative="1" as="geometry">
            <Array as="points">
              <mxPoint x="1030" y="612" />
            </Array>
          </mxGeometry>
        </mxCell>
        <mxCell id="Qf_iPtZ823K7PLNo9VAm-28" value="LÃ¤dt&lt;div&gt;Datei&lt;/div&gt;" style="edgeLabel;html=1;align=center;verticalAlign=middle;resizable=0;points=[];" vertex="1" connectable="0" parent="Qf_iPtZ823K7PLNo9VAm-27">
          <mxGeometry x="-0.5574" y="-1" relative="1" as="geometry">
            <mxPoint as="offset" />
          </mxGeometry>
        </mxCell>
        <mxCell id="Qf_iPtZ823K7PLNo9VAm-31" style="edgeStyle=orthogonalEdgeStyle;rounded=0;orthogonalLoop=1;jettySize=auto;html=1;" edge="1" parent="1" source="Qf_iPtZ823K7PLNo9VAm-29" target="Qf_iPtZ823K7PLNo9VAm-23">
          <mxGeometry relative="1" as="geometry">
            <Array as="points">
              <mxPoint x="1040" y="910" />
            </Array>
          </mxGeometry>
        </mxCell>
        <mxCell id="Qf_iPtZ823K7PLNo9VAm-32" value="LÃ¤dt&lt;div&gt;Datei&lt;/div&gt;" style="edgeLabel;html=1;align=center;verticalAlign=middle;resizable=0;points=[];" vertex="1" connectable="0" parent="Qf_iPtZ823K7PLNo9VAm-31">
          <mxGeometry x="-0.4523" y="1" relative="1" as="geometry">
            <mxPoint as="offset" />
          </mxGeometry>
        </mxCell>
        <mxCell id="Qf_iPtZ823K7PLNo9VAm-29" value="Fight" style="rounded=0;whiteSpace=wrap;html=1;fillColor=#dae8fc;strokeColor=#6c8ebf;" vertex="1" parent="1">
          <mxGeometry x="1010" y="640" width="60" height="30" as="geometry" />
        </mxCell>
        <mxCell id="Qf_iPtZ823K7PLNo9VAm-30" style="edgeStyle=orthogonalEdgeStyle;rounded=0;orthogonalLoop=1;jettySize=auto;html=1;entryX=0;entryY=0.667;entryDx=0;entryDy=0;entryPerimeter=0;" edge="1" parent="1" source="Qf_iPtZ823K7PLNo9VAm-22" target="Qf_iPtZ823K7PLNo9VAm-29">
          <mxGeometry relative="1" as="geometry" />
        </mxCell>
        <mxCell id="Qf_iPtZ823K7PLNo9VAm-33" value="Shop-Klasse" style="shape=hexagon;perimeter=hexagonPerimeter2;whiteSpace=wrap;html=1;fixedSize=1;fillColor=#f8cecc;strokeColor=#b85450;" vertex="1" parent="1">
          <mxGeometry x="685" y="740" width="160" height="80" as="geometry" />
        </mxCell>
        <mxCell id="Qf_iPtZ823K7PLNo9VAm-36" style="edgeStyle=orthogonalEdgeStyle;rounded=0;orthogonalLoop=1;jettySize=auto;html=1;entryX=0.5;entryY=0;entryDx=0;entryDy=0;flowAnimation=1;" edge="1" parent="1" source="Qf_iPtZ823K7PLNo9VAm-34" target="Qf_iPtZ823K7PLNo9VAm-33">
          <mxGeometry relative="1" as="geometry" />
        </mxCell>
        <mxCell id="Qf_iPtZ823K7PLNo9VAm-38" value="Ruft &quot;Tier kaufen&quot;&lt;div&gt;Methode auf&lt;/div&gt;" style="edgeLabel;html=1;align=center;verticalAlign=middle;resizable=0;points=[];rotation=0;" vertex="1" connectable="0" parent="Qf_iPtZ823K7PLNo9VAm-36">
          <mxGeometry x="-0.2" y="1" relative="1" as="geometry">
            <mxPoint as="offset" />
          </mxGeometry>
        </mxCell>
        <mxCell id="Qf_iPtZ823K7PLNo9VAm-39" style="edgeStyle=orthogonalEdgeStyle;rounded=0;orthogonalLoop=1;jettySize=auto;html=1;entryX=0;entryY=0.5;entryDx=0;entryDy=0;startArrow=none;startFill=0;flowAnimation=0;" edge="1" parent="1" source="Qf_iPtZ823K7PLNo9VAm-34" target="Qf_iPtZ823K7PLNo9VAm-33">
          <mxGeometry relative="1" as="geometry">
            <Array as="points">
              <mxPoint x="665" y="640" />
              <mxPoint x="665" y="780" />
            </Array>
          </mxGeometry>
        </mxCell>
        <mxCell id="Qf_iPtZ823K7PLNo9VAm-40" value="Polling&lt;div&gt;Geld&lt;/div&gt;" style="edgeLabel;html=1;align=center;verticalAlign=middle;resizable=0;points=[];" vertex="1" connectable="0" parent="Qf_iPtZ823K7PLNo9VAm-39">
          <mxGeometry x="0.0389" y="3" relative="1" as="geometry">
            <mxPoint as="offset" />
          </mxGeometry>
        </mxCell>
        <mxCell id="Qf_iPtZ823K7PLNo9VAm-34" value="Tierkauf" style="ellipse;shape=cloud;whiteSpace=wrap;html=1;fillColor=#d5e8d4;strokeColor=#82b366;" vertex="1" parent="1">
          <mxGeometry x="720" y="600" width="90" height="60" as="geometry" />
        </mxCell>
        <mxCell id="Qf_iPtZ823K7PLNo9VAm-35" style="edgeStyle=orthogonalEdgeStyle;rounded=0;orthogonalLoop=1;jettySize=auto;html=1;entryX=0.875;entryY=0.5;entryDx=0;entryDy=0;entryPerimeter=0;" edge="1" parent="1" source="Qf_iPtZ823K7PLNo9VAm-22" target="Qf_iPtZ823K7PLNo9VAm-34">
          <mxGeometry relative="1" as="geometry" />
        </mxCell>
        <mxCell id="Qf_iPtZ823K7PLNo9VAm-41" value="Kampf-Klasse" style="shape=hexagon;perimeter=hexagonPerimeter2;whiteSpace=wrap;html=1;fixedSize=1;fillColor=#f8cecc;strokeColor=#b85450;" vertex="1" parent="1">
          <mxGeometry x="650" y="980" width="160" height="80" as="geometry" />
        </mxCell>
        <mxCell id="Qf_iPtZ823K7PLNo9VAm-47" value="Tier-Klasse" style="shape=hexagon;perimeter=hexagonPerimeter2;whiteSpace=wrap;html=1;fixedSize=1;fillColor=#f8cecc;strokeColor=#b85450;" vertex="1" parent="1">
          <mxGeometry x="1070" y="980" width="160" height="80" as="geometry" />
        </mxCell>
        <mxCell id="Qf_iPtZ823K7PLNo9VAm-56" style="edgeStyle=orthogonalEdgeStyle;rounded=0;orthogonalLoop=1;jettySize=auto;html=1;exitX=0;exitY=0.5;exitDx=0;exitDy=0;flowAnimation=1;" edge="1" parent="1" source="Qf_iPtZ823K7PLNo9VAm-77" target="Qf_iPtZ823K7PLNo9VAm-33">
          <mxGeometry relative="1" as="geometry">
            <mxPoint x="720.0000000000005" y="540" as="sourcePoint" />
            <Array as="points">
              <mxPoint x="630" y="545" />
              <mxPoint x="630" y="800" />
            </Array>
          </mxGeometry>
        </mxCell>
        <mxCell id="Qf_iPtZ823K7PLNo9VAm-57" value="ruft &quot;Reroll&quot;&lt;div&gt;Methode auf&lt;/div&gt;" style="edgeLabel;html=1;align=center;verticalAlign=middle;resizable=0;points=[];" vertex="1" connectable="0" parent="Qf_iPtZ823K7PLNo9VAm-56">
          <mxGeometry x="-0.2991" y="-1" relative="1" as="geometry">
            <mxPoint as="offset" />
          </mxGeometry>
        </mxCell>
        <mxCell id="Qf_iPtZ823K7PLNo9VAm-69" style="edgeStyle=orthogonalEdgeStyle;rounded=0;orthogonalLoop=1;jettySize=auto;html=1;entryX=0.375;entryY=0;entryDx=0;entryDy=0;flowAnimation=1;" edge="1" parent="1" source="Qf_iPtZ823K7PLNo9VAm-58" target="TYEe0qcxnPPXXh8wLUPJ-21">
          <mxGeometry relative="1" as="geometry">
            <Array as="points">
              <mxPoint x="-35" y="510" />
              <mxPoint x="60" y="510" />
            </Array>
          </mxGeometry>
        </mxCell>
        <mxCell id="Qf_iPtZ823K7PLNo9VAm-70" value="ruft&lt;div&gt;&quot;Reroll&quot;&lt;/div&gt;&lt;div&gt;Methode&lt;/div&gt;&lt;div&gt;auf&lt;/div&gt;" style="edgeLabel;html=1;align=center;verticalAlign=middle;resizable=0;points=[];fontSize=7;" vertex="1" connectable="0" parent="Qf_iPtZ823K7PLNo9VAm-69">
          <mxGeometry x="0.6182" y="1" relative="1" as="geometry">
            <mxPoint as="offset" />
          </mxGeometry>
        </mxCell>
        <mxCell id="Qf_iPtZ823K7PLNo9VAm-58" value="Roll" style="ellipse;shape=cloud;whiteSpace=wrap;html=1;fillColor=#d5e8d4;strokeColor=#82b366;" vertex="1" parent="1">
          <mxGeometry x="-80" y="420" width="90" height="60" as="geometry" />
        </mxCell>
        <mxCell id="Qf_iPtZ823K7PLNo9VAm-59" value="Tierkauf" style="ellipse;shape=cloud;whiteSpace=wrap;html=1;fillColor=#d5e8d4;strokeColor=#82b366;" vertex="1" parent="1">
          <mxGeometry x="60" y="440" width="90" height="60" as="geometry" />
        </mxCell>
        <mxCell id="Qf_iPtZ823K7PLNo9VAm-60" style="edgeStyle=orthogonalEdgeStyle;rounded=0;orthogonalLoop=1;jettySize=auto;html=1;entryX=0.875;entryY=0.5;entryDx=0;entryDy=0;entryPerimeter=0;" edge="1" parent="1" source="TYEe0qcxnPPXXh8wLUPJ-28" target="Qf_iPtZ823K7PLNo9VAm-58">
          <mxGeometry relative="1" as="geometry" />
        </mxCell>
        <mxCell id="Qf_iPtZ823K7PLNo9VAm-62" style="edgeStyle=orthogonalEdgeStyle;rounded=0;orthogonalLoop=1;jettySize=auto;html=1;entryX=0.16;entryY=0.55;entryDx=0;entryDy=0;entryPerimeter=0;" edge="1" parent="1" source="TYEe0qcxnPPXXh8wLUPJ-28" target="Qf_iPtZ823K7PLNo9VAm-59">
          <mxGeometry relative="1" as="geometry">
            <Array as="points">
              <mxPoint x="40" y="473" />
            </Array>
          </mxGeometry>
        </mxCell>
        <mxCell id="Qf_iPtZ823K7PLNo9VAm-63" style="edgeStyle=orthogonalEdgeStyle;rounded=0;orthogonalLoop=1;jettySize=auto;html=1;exitX=0.77;exitY=0.878;exitDx=0;exitDy=0;exitPerimeter=0;flowAnimation=1;" edge="1" parent="1">
          <mxGeometry relative="1" as="geometry">
            <mxPoint x="129.30000000000018" y="495.8500000000001" as="sourcePoint" />
            <mxPoint x="130" y="640" as="targetPoint" />
            <Array as="points">
              <mxPoint x="129" y="573" />
              <mxPoint x="130" y="573" />
              <mxPoint x="130" y="640" />
            </Array>
          </mxGeometry>
        </mxCell>
        <mxCell id="Qf_iPtZ823K7PLNo9VAm-64" value="Ruft&lt;div&gt;&quot;Tiere&lt;/div&gt;&lt;div&gt;kaufen&quot;&lt;/div&gt;&lt;div&gt;Methode&lt;/div&gt;&lt;div&gt;auf&lt;/div&gt;" style="edgeLabel;html=1;align=center;verticalAlign=middle;resizable=0;points=[];fontSize=7;" vertex="1" connectable="0" parent="Qf_iPtZ823K7PLNo9VAm-63">
          <mxGeometry x="-0.2157" y="-1" relative="1" as="geometry">
            <mxPoint as="offset" />
          </mxGeometry>
        </mxCell>
        <mxCell id="Qf_iPtZ823K7PLNo9VAm-65" style="edgeStyle=orthogonalEdgeStyle;rounded=0;orthogonalLoop=1;jettySize=auto;html=1;entryX=0.657;entryY=-0.005;entryDx=0;entryDy=0;entryPerimeter=0;" edge="1" parent="1" source="Qf_iPtZ823K7PLNo9VAm-59" target="TYEe0qcxnPPXXh8wLUPJ-21">
          <mxGeometry relative="1" as="geometry" />
        </mxCell>
        <mxCell id="Qf_iPtZ823K7PLNo9VAm-66" value="Polling&lt;div&gt;Geld&lt;/div&gt;" style="edgeLabel;html=1;align=center;verticalAlign=middle;resizable=0;points=[];fontSize=7;" vertex="1" connectable="0" parent="Qf_iPtZ823K7PLNo9VAm-65">
          <mxGeometry x="0.3509" relative="1" as="geometry">
            <mxPoint as="offset" />
          </mxGeometry>
        </mxCell>
        <mxCell id="Qf_iPtZ823K7PLNo9VAm-67" style="edgeStyle=orthogonalEdgeStyle;rounded=0;orthogonalLoop=1;jettySize=auto;html=1;" edge="1" parent="1" source="TYEe0qcxnPPXXh8wLUPJ-28">
          <mxGeometry relative="1" as="geometry">
            <mxPoint x="80" y="640" as="targetPoint" />
            <Array as="points">
              <mxPoint x="40" y="500" />
              <mxPoint x="80" y="500" />
              <mxPoint x="80" y="640" />
            </Array>
          </mxGeometry>
        </mxCell>
        <mxCell id="Qf_iPtZ823K7PLNo9VAm-68" value="Polling&lt;div&gt;Shoptiere&lt;/div&gt;" style="edgeLabel;html=1;align=center;verticalAlign=middle;resizable=0;points=[];fontSize=7;" vertex="1" connectable="0" parent="Qf_iPtZ823K7PLNo9VAm-67">
          <mxGeometry x="0.0687" y="-2" relative="1" as="geometry">
            <mxPoint as="offset" />
          </mxGeometry>
        </mxCell>
        <mxCell id="Qf_iPtZ823K7PLNo9VAm-75" value="Button" style="rounded=0;whiteSpace=wrap;html=1;fillColor=#dae8fc;strokeColor=#6c8ebf;" vertex="1" parent="1">
          <mxGeometry x="850" y="250" width="60" height="30" as="geometry" />
        </mxCell>
        <mxCell id="Qf_iPtZ823K7PLNo9VAm-76" value="Andere&lt;div&gt;Aktion&lt;/div&gt;" style="ellipse;shape=cloud;whiteSpace=wrap;html=1;fillColor=#d5e8d4;strokeColor=#82b366;" vertex="1" parent="1">
          <mxGeometry x="940" y="240" width="90" height="50" as="geometry" />
        </mxCell>
        <mxCell id="Qf_iPtZ823K7PLNo9VAm-77" value="Roll" style="rounded=0;whiteSpace=wrap;html=1;fillColor=#dae8fc;strokeColor=#6c8ebf;" vertex="1" parent="1">
          <mxGeometry x="730" y="530" width="60" height="30" as="geometry" />
        </mxCell>
        <mxCell id="Qf_iPtZ823K7PLNo9VAm-79" value="" style="endArrow=classic;html=1;rounded=0;flowAnimation=1;" edge="1" parent="1">
          <mxGeometry width="50" height="50" relative="1" as="geometry">
            <mxPoint x="760" y="279.31" as="sourcePoint" />
            <mxPoint x="800" y="279.31" as="targetPoint" />
          </mxGeometry>
        </mxCell>
        <mxCell id="Qf_iPtZ823K7PLNo9VAm-80" value="REST-API" style="text;html=1;align=center;verticalAlign=middle;resizable=0;points=[];autosize=1;strokeColor=none;fillColor=none;" vertex="1" parent="1">
          <mxGeometry x="740" y="250" width="80" height="30" as="geometry" />
        </mxCell>
        <mxCell id="Qf_iPtZ823K7PLNo9VAm-81" value="&lt;font style=&quot;font-size: 14px;&quot;&gt;&lt;b&gt;Kommunikation Frontend - Backend&lt;/b&gt;&lt;/font&gt;" style="whiteSpace=wrap;html=1;" vertex="1" parent="1">
          <mxGeometry x="740" y="170" width="290" height="60" as="geometry" />
        </mxCell>
      </root>
    </mxGraphModel>
  </diagram>
</mxfile>
